<svg xmlns="http://www.w3.org/2000/svg" width="140" height="550" viewBox="0 0 140 550">
  <!-- Square GOBLINCAKES task buttons: active = dark blue, running = dim tile.
       Generated by tools/plasma-frames.py – edit that, not this file. -->
  <!-- normal -->
  <rect id="normal-topleft" x="0" y="0" width="1" height="1" fill="#1A2438"/>
  <rect id="normal-top" x="1" y="0" width="98" height="1" fill="#1A2438"/>
  <rect id="normal-topright" x="99" y="0" width="1" height="1" fill="#1A2438"/>
  <rect id="normal-left" x="0" y="1" width="1" height="98" fill="#1A2438"/>
  <rect id="normal-right" x="99" y="1" width="1" height="98" fill="#1A2438"/>
  <rect id="normal-bottomleft" x="0" y="99" width="1" height="1" fill="#1A2438"/>
  <rect id="normal-bottom" x="1" y="99" width="98" height="1" fill="#1A2438"/>
  <rect id="normal-bottomright" x="99" y="99" width="1" height="1" fill="#1A2438"/>
  <rect id="normal-center" x="1" y="1" width="98" height="98" fill="#1A2438"/>
  <rect id="normal-hint-top-margin" x="110" y="0" width="1" height="2" fill="none"/>
  <rect id="normal-hint-bottom-margin" x="115" y="0" width="1" height="2" fill="none"/>
  <rect id="normal-hint-left-margin" x="110" y="20" width="2" height="1" fill="none"/>
  <rect id="normal-hint-right-margin" x="110" y="30" width="2" height="1" fill="none"/>
  <!-- hover -->
  <rect id="hover-topleft" x="0" y="110" width="1" height="1" fill="#2A3852"/>
  <rect id="hover-top" x="1" y="110" width="98" height="1" fill="#2A3852"/>
  <rect id="hover-topright" x="99" y="110" width="1" height="1" fill="#2A3852"/>
  <rect id="hover-left" x="0" y="111" width="1" height="98" fill="#2A3852"/>
  <rect id="hover-right" x="99" y="111" width="1" height="98" fill="#2A3852"/>
  <rect id="hover-bottomleft" x="0" y="209" width="1" height="1" fill="#2A3852"/>
  <rect id="hover-bottom" x="1" y="209" width="98" height="1" fill="#2A3852"/>
  <rect id="hover-bottomright" x="99" y="209" width="1" height="1" fill="#2A3852"/>
  <rect id="hover-center" x="1" y="111" width="98" height="98" fill="#2A3852"/>
  <rect id="hover-hint-top-margin" x="110" y="110" width="1" height="2" fill="none"/>
  <rect id="hover-hint-bottom-margin" x="115" y="110" width="1" height="2" fill="none"/>
  <rect id="hover-hint-left-margin" x="110" y="130" width="2" height="1" fill="none"/>
  <rect id="hover-hint-right-margin" x="110" y="140" width="2" height="1" fill="none"/>
  <!-- focus -->
  <rect id="focus-topleft" x="0" y="220" width="1" height="1" fill="#2F6FED"/>
  <rect id="focus-top" x="1" y="220" width="98" height="1" fill="#2F6FED"/>
  <rect id="focus-topright" x="99" y="220" width="1" height="1" fill="#2F6FED"/>
  <rect id="focus-left" x="0" y="221" width="1" height="98" fill="#2F6FED"/>
  <rect id="focus-right" x="99" y="221" width="1" height="98" fill="#2F6FED"/>
  <rect id="focus-bottomleft" x="0" y="319" width="1" height="1" fill="#2F6FED"/>
  <rect id="focus-bottom" x="1" y="319" width="98" height="1" fill="#2F6FED"/>
  <rect id="focus-bottomright" x="99" y="319" width="1" height="1" fill="#2F6FED"/>
  <rect id="focus-center" x="1" y="221" width="98" height="98" fill="#1B3A78"/>
  <rect id="focus-hint-top-margin" x="110" y="220" width="1" height="2" fill="none"/>
  <rect id="focus-hint-bottom-margin" x="115" y="220" width="1" height="2" fill="none"/>
  <rect id="focus-hint-left-margin" x="110" y="240" width="2" height="1" fill="none"/>
  <rect id="focus-hint-right-margin" x="110" y="250" width="2" height="1" fill="none"/>
  <!-- minimized -->
  <rect id="minimized-topleft" x="0" y="330" width="1" height="1" fill="#1A2438"/>
  <rect id="minimized-top" x="1" y="330" width="98" height="1" fill="#1A2438"/>
  <rect id="minimized-topright" x="99" y="330" width="1" height="1" fill="#1A2438"/>
  <rect id="minimized-left" x="0" y="331" width="1" height="98" fill="#1A2438"/>
  <rect id="minimized-right" x="99" y="331" width="1" height="98" fill="#1A2438"/>
  <rect id="minimized-bottomleft" x="0" y="429" width="1" height="1" fill="#1A2438"/>
  <rect id="minimized-bottom" x="1" y="429" width="98" height="1" fill="#1A2438"/>
  <rect id="minimized-bottomright" x="99" y="429" width="1" height="1" fill="#1A2438"/>
  <rect id="minimized-center" x="1" y="331" width="98" height="98" fill="none"/>
  <rect id="minimized-hint-top-margin" x="110" y="330" width="1" height="2" fill="none"/>
  <rect id="minimized-hint-bottom-margin" x="115" y="330" width="1" height="2" fill="none"/>
  <rect id="minimized-hint-left-margin" x="110" y="350" width="2" height="1" fill="none"/>
  <rect id="minimized-hint-right-margin" x="110" y="360" width="2" height="1" fill="none"/>
  <!-- attention -->
  <rect id="attention-topleft" x="0" y="440" width="1" height="1" fill="#D9822B"/>
  <rect id="attention-top" x="1" y="440" width="98" height="1" fill="#D9822B"/>
  <rect id="attention-topright" x="99" y="440" width="1" height="1" fill="#D9822B"/>
  <rect id="attention-left" x="0" y="441" width="1" height="98" fill="#D9822B"/>
  <rect id="attention-right" x="99" y="441" width="1" height="98" fill="#D9822B"/>
  <rect id="attention-bottomleft" x="0" y="539" width="1" height="1" fill="#D9822B"/>
  <rect id="attention-bottom" x="1" y="539" width="98" height="1" fill="#D9822B"/>
  <rect id="attention-bottomright" x="99" y="539" width="1" height="1" fill="#D9822B"/>
  <rect id="attention-center" x="1" y="441" width="98" height="98" fill="#D9822B" fill-opacity="0.35"/>
  <rect id="attention-hint-top-margin" x="110" y="440" width="1" height="2" fill="none"/>
  <rect id="attention-hint-bottom-margin" x="115" y="440" width="1" height="2" fill="none"/>
  <rect id="attention-hint-left-margin" x="110" y="460" width="2" height="1" fill="none"/>
  <rect id="attention-hint-right-margin" x="110" y="470" width="2" height="1" fill="none"/>
</svg>
